<svg id="レイヤー_1" data-name="レイヤー 1" xmlns="http://www.w3.org/2000/svg" viewBox="0 0 154 57"><defs><style>.cls-1{fill:#ea7329;}</style></defs><path class="cls-1" d="M22.53,27.75H5.47a11.9,11.9,0,0,1,21.27-4.67h5.1a16.29,16.29,0,0,0-31,7A16.56,16.56,0,0,0,1,32.44H28.8A11.9,11.9,0,0,1,7.55,37.13H2.45a16.28,16.28,0,0,0,30.8-9.36H22.53Z"/><path class="cls-1" d="M54.45,13.81A16.28,16.28,0,0,0,38.19,29.33h0V56.92h4.7V41.53A16.29,16.29,0,1,0,54.45,13.81Zm0,28.17A11.89,11.89,0,1,1,66.34,30.09,11.89,11.89,0,0,1,54.45,42Z"/><rect class="cls-1" x="75.8" y="13.95" width="5.12" height="32.42"/><path class="cls-1" d="M79.42,10.54a1.59,1.59,0,0,1-2.28,0L73.28,6.68a1.6,1.6,0,0,1,0-2.27L77.14.55a1.61,1.61,0,0,1,2.28,0l3.85,3.86a1.6,1.6,0,0,1,0,2.27Z"/><path class="cls-1" d="M102.1,42A11.89,11.89,0,1,1,112.86,25h4.72a16.28,16.28,0,1,0,.11,9.76H113A11.91,11.91,0,0,1,102.1,42Z"/><path class="cls-1" d="M148.48,34.8a11.9,11.9,0,0,1-22.54-2.15h15.32V27.53H125.94A11.89,11.89,0,0,1,148.32,25H153a16.27,16.27,0,1,0,.12,9.76Z"/></svg>