<svg id="レイヤー_1" data-name="レイヤー 1" xmlns="http://www.w3.org/2000/svg" viewBox="0 0 182 44"><path d="M60.32,20.22a.53.53,0,0,1,.55.57.52.52,0,0,1-.55.58H53.69v5.42c0,.63.24.76.78.76h6.81a.54.54,0,0,1,.56.57.52.52,0,0,1-.56.58H54.16c-1.74,0-1.74-1.32-1.74-1.93V15.39c0-.63,0-1.94,1.74-1.94H61a.55.55,0,0,1,.56.59.53.53,0,0,1-.56.57H54.47c-.54,0-.78.13-.78.78v4.83Z"/><path d="M67.29,27.94l-4-10a1,1,0,0,1-.12-.45.63.63,0,0,1,.66-.53.51.51,0,0,1,.51.41l3.53,9,3.55-8.93c.08-.21.16-.43.53-.43a.61.61,0,0,1,.64.55,1.31,1.31,0,0,1-.12.41L66.37,33.37c-.12.29-.21.52-.57.52-.21,0-.62-.12-.62-.52,0-.12,0-.16.12-.38Z"/><path d="M75.44,23.42c0,.92.19,4.5,4.56,4.5a7,7,0,0,0,2.48-.41,1.8,1.8,0,0,1,.53-.15.55.55,0,0,1,.54.55.58.58,0,0,1-.39.54A8.75,8.75,0,0,1,80,29c-4.73,0-5.73-3.69-5.73-5.93,0-3.32,1.89-6.09,5.13-6.09,3.57,0,4.89,3.26,4.89,5.23,0,1.19-.79,1.19-1.65,1.19Zm7.16-1.09c.25,0,.48,0,.48-.31,0-.78-.76-3.92-3.74-3.92-2.22,0-3.72,1.79-3.88,4.23Z"/><path d="M87.47,27.57a6.83,6.83,0,0,0,2.15.35c.43,0,3.18,0,3.18-2.22,0-1.48-1.11-1.83-3.1-2.46-1.45-.44-3.1-.95-3.1-3.06s1.75-3.18,4-3.18a6.14,6.14,0,0,1,2.24.41.61.61,0,0,1,.47.57.54.54,0,0,1-.53.55s-.59-.18-.68-.2a5.31,5.31,0,0,0-1.52-.23c-1.54,0-2.73.66-2.73,2s.85,1.66,3,2.34c1.29.39,3.2,1,3.2,3.24S92,29,89.6,29a8,8,0,0,1-3-.59c-.2-.08-.49-.19-.49-.56a.55.55,0,0,1,.57-.57A7.68,7.68,0,0,1,87.47,27.57Z"/><path d="M102.71,21.1a7.72,7.72,0,0,1,8.07-8,8,8,0,0,1,4.1,1,.66.66,0,0,1,.39.56.59.59,0,0,1-.59.61c-.19,0-.23,0-.6-.26a7,7,0,0,0-3.32-.8A6.53,6.53,0,0,0,104,21.08a6.56,6.56,0,0,0,7,6.79,7.71,7.71,0,0,0,3.23-.63,6.34,6.34,0,0,1,.78-.31.59.59,0,0,1,.55.6.64.64,0,0,1-.43.59,10,10,0,0,1-4.23.9C105.65,29,102.71,25.35,102.71,21.1Z"/><path d="M122.91,17c3.12,0,5.58,2.34,5.58,6s-2.46,6-5.58,6-5.55-2.31-5.55-6S119.83,17,122.91,17Zm0,10.92c2,0,4.35-1.36,4.35-4.91s-2.36-4.91-4.35-4.91-4.33,1.34-4.33,4.91S120.91,27.92,122.91,27.92Z"/><path d="M140,28.43a.61.61,0,0,1-1.21,0v-6.1c0-1.91,0-4.23-2.85-4.23a3.51,3.51,0,0,0-3,1.61,5,5,0,0,0-.53,2.62v6.1a.6.6,0,0,1-1.2,0V17.59a.57.57,0,0,1,.6-.59.55.55,0,0,1,.6.59V19A4.15,4.15,0,0,1,136,17a3.71,3.71,0,0,1,3.41,1.76,6.65,6.65,0,0,1,.53,3.43Z"/><path d="M146,25.62c0,1.39.06,2.3,2,2.3l1,0a.53.53,0,0,1,.55.54c0,.53-.49.59-1.68.59-2.91,0-3.1-1.62-3.1-3.44V18.41h-2.05a.5.5,0,0,1-.52-.55.49.49,0,0,1,.52-.54h2.05v-3a.61.61,0,0,1,1.21,0v3h3.24a.52.52,0,0,1,.54.54.5.5,0,0,1-.54.55H146Z"/><path d="M160.54,26.66a5.31,5.31,0,0,0,.12,1.15c0,.17.17.54.17.64a.61.61,0,0,1-.64.57c-.78,0-.86-1.37-.86-2.29A5.11,5.11,0,0,1,155,29a3.27,3.27,0,0,1-3.59-3.32c0-1.56.76-3.08,3.59-3.57.51-.1,2.81-.39,3.26-.5a1.14,1.14,0,0,0,1-1.27c0-1.6-1.58-2.26-3.26-2.26a5.7,5.7,0,0,0-2.51.5,1.4,1.4,0,0,1-.61.22.51.51,0,0,1-.5-.53c0-.37.29-.51.72-.7A7.11,7.11,0,0,1,156,17a4.85,4.85,0,0,1,3.83,1.51,4.06,4.06,0,0,1,.68,2.74Zm-1.21-4.37c-.49.31-.76.37-3.16.72-1.75.27-3.53.53-3.53,2.65a2.16,2.16,0,0,0,2.48,2.26A4.65,4.65,0,0,0,159.33,25Z"/><path d="M163.29,23c0-3.33,2.18-6,5.75-6a6.36,6.36,0,0,1,2.93.69.59.59,0,0,1,.37.52.55.55,0,0,1-.55.57c-.1,0-.17,0-.6-.24a4.94,4.94,0,0,0-2.11-.44c-2.49,0-4.56,1.67-4.56,4.89,0,2.75,1.48,4.93,4.66,4.93a5.71,5.71,0,0,0,2.28-.41,2.11,2.11,0,0,1,.53-.15.54.54,0,0,1,.52.55.56.56,0,0,1-.33.52,8.2,8.2,0,0,1-3.1.59C165.1,29,163.29,26.07,163.29,23Z"/><path d="M177.61,25.62c0,1.39,0,2.3,2,2.3l1,0a.52.52,0,0,1,.54.54c0,.53-.48.59-1.67.59-2.91,0-3.1-1.62-3.1-3.44V18.41h-2.05a.51.51,0,0,1-.53-.55.5.5,0,0,1,.53-.54h2.05v-3a.61.61,0,0,1,1.21,0v3h3.23a.52.52,0,0,1,.55.54.51.51,0,0,1-.55.55h-3.23Z"/><path d="M22,39.13A17.13,17.13,0,1,1,37.92,15.6h4.57a21.43,21.43,0,1,0,0,12.8H37.92A17.15,17.15,0,0,1,22,39.13Z"/><path d="M22,9.08A13,13,0,0,0,10.81,15.6h5.46a8.61,8.61,0,0,1,14.11,4.25H19v4.3H30.38A8.61,8.61,0,0,1,16.27,28.4H10.81A12.92,12.92,0,1,0,22,9.08Z"/></svg>