<svg id="レイヤー_1" data-name="レイヤー 1" xmlns="http://www.w3.org/2000/svg" viewBox="0 0 110.53 36.96"><path d="M7,1.31H19.5V3.74h-10v7.81h10V14h-10V26.22H7Z"/><path d="M22.21,7.79h2.41v2.7A8.5,8.5,0,0,1,26.91,8.1a4.55,4.55,0,0,1,2.51-.78,4.43,4.43,0,0,1,2.1.62l-1.24,2A3.37,3.37,0,0,0,29,9.62a3.45,3.45,0,0,0-2.29,1,6.13,6.13,0,0,0-1.67,3A28.38,28.38,0,0,0,24.62,20v6.23H22.21Z"/><path d="M51.55,7.79V26.22H49.21V23.06a10.26,10.26,0,0,1-3.34,2.72,9.37,9.37,0,0,1-10.74-1.92A9.49,9.49,0,0,1,32.36,17a9.33,9.33,0,0,1,2.79-6.81,9.12,9.12,0,0,1,6.73-2.83,8.7,8.7,0,0,1,4.1,1,9.31,9.31,0,0,1,3.23,2.9V7.79ZM42.07,9.61a7.16,7.16,0,0,0-6.32,3.7,7.45,7.45,0,0,0,0,7.44,7.21,7.21,0,0,0,2.68,2.77,7,7,0,0,0,3.61,1,7.48,7.48,0,0,0,3.7-1,6.85,6.85,0,0,0,2.68-2.66,7.61,7.61,0,0,0,.94-3.77,7.36,7.36,0,0,0-2.11-5.35A7,7,0,0,0,42.07,9.61Z"/><path d="M74.43,11.62l-1.88,1.17A7.89,7.89,0,0,0,65.9,9.55a7.69,7.69,0,0,0-5.6,2.17A7.07,7.07,0,0,0,58.08,17a7.49,7.49,0,0,0,1,3.79,7.24,7.24,0,0,0,2.81,2.76,8.23,8.23,0,0,0,4,1,8.11,8.11,0,0,0,6.64-3.24l1.88,1.24a8.88,8.88,0,0,1-3.55,3.09,11.39,11.39,0,0,1-5.08,1.09,10,10,0,0,1-7.25-2.77,9,9,0,0,1-2.88-6.76,9.61,9.61,0,0,1,1.35-5,9.43,9.43,0,0,1,3.7-3.58A10.8,10.8,0,0,1,66,7.32a11.29,11.29,0,0,1,3.53.56,9.66,9.66,0,0,1,2.89,1.45A8.16,8.16,0,0,1,74.43,11.62Z"/><path d="M96.52,11.62l-1.88,1.17A7.87,7.87,0,0,0,88,9.55a7.69,7.69,0,0,0-5.59,2.17A7.07,7.07,0,0,0,80.18,17a7.49,7.49,0,0,0,1,3.79A7.17,7.17,0,0,0,84,23.53a8.23,8.23,0,0,0,4,1,8.07,8.07,0,0,0,6.63-3.24l1.88,1.24A8.85,8.85,0,0,1,93,25.6a11.39,11.39,0,0,1-5.08,1.09,10,10,0,0,1-7.25-2.77,9,9,0,0,1-2.88-6.76,9.61,9.61,0,0,1,1.35-5,9.43,9.43,0,0,1,3.7-3.58,10.8,10.8,0,0,1,5.27-1.29,11.34,11.34,0,0,1,3.53.56,9.66,9.66,0,0,1,2.89,1.45A8,8,0,0,1,96.52,11.62Z"/><path d="M101.56.2a1.87,1.87,0,0,1,1.38.58,1.9,1.9,0,0,1,.57,1.39,1.87,1.87,0,0,1-.57,1.37,1.87,1.87,0,0,1-1.38.58,1.84,1.84,0,0,1-1.37-.58,1.87,1.87,0,0,1-.57-1.37,1.9,1.9,0,0,1,.57-1.39A1.84,1.84,0,0,1,101.56.2Zm-1.19,7.59h2.38V26.22h-2.38Z"/><path d="M25.48,27.8v.64a1.76,1.76,0,0,0-.63-.16.59.59,0,0,0-.31.08.33.33,0,0,0-.16.18,2.46,2.46,0,0,0,0,.54v.69h1.07v.57H24.34v4.55h-.66V30.34H23v-.57h.67V29a2.32,2.32,0,0,1,.1-.78.76.76,0,0,1,.35-.38,1.06,1.06,0,0,1,.58-.15A2.74,2.74,0,0,1,25.48,27.8Z"/><path d="M30.7,33.19l.56.29a3.37,3.37,0,0,1-.63.87,2.73,2.73,0,0,1-.81.5,2.89,2.89,0,0,1-1,.17,2.46,2.46,0,0,1-2-.82,2.77,2.77,0,0,1-.71-1.86,2.72,2.72,0,0,1,.6-1.73,2.44,2.44,0,0,1,2-1,2.53,2.53,0,0,1,2.09,1,2.74,2.74,0,0,1,.56,1.75h-4.6a2.06,2.06,0,0,0,.57,1.46,1.82,1.82,0,0,0,1.36.57,2.48,2.48,0,0,0,.76-.13,1.78,1.78,0,0,0,.63-.37A2.94,2.94,0,0,0,30.7,33.19Zm0-1.38a2.19,2.19,0,0,0-.39-.84,1.72,1.72,0,0,0-.66-.51,2,2,0,0,0-.87-.19,1.88,1.88,0,0,0-1.3.49,2.12,2.12,0,0,0-.59,1Z"/><path d="M37.75,29.77v5.12H37.1V34a2.89,2.89,0,0,1-.93.76A2.64,2.64,0,0,1,35,35a2.47,2.47,0,0,1-1.85-.79,2.64,2.64,0,0,1-.77-1.92,2.57,2.57,0,0,1,.78-1.88,2.5,2.5,0,0,1,1.86-.79,2.34,2.34,0,0,1,1.14.27,2.61,2.61,0,0,1,.9.8v-.94Zm-2.63.5a2,2,0,0,0-1.75,1,2.05,2.05,0,0,0,0,2.07,2,2,0,0,0,1.74,1,2.09,2.09,0,0,0,1-.27,1.88,1.88,0,0,0,.74-.74,2.15,2.15,0,0,0,.26-1,2,2,0,0,0-.58-1.48A1.93,1.93,0,0,0,35.12,30.27Z"/><path d="M39,29.77h.67v.75a2.25,2.25,0,0,1,.64-.66,1.28,1.28,0,0,1,.69-.22,1.23,1.23,0,0,1,.58.17l-.34.56a.9.9,0,0,0-.34-.09,1,1,0,0,0-.64.27,1.77,1.77,0,0,0-.47.84,8.19,8.19,0,0,0-.12,1.77v1.73H39Z"/><path d="M42,27.8h.66v7.09H42Z"/><path d="M48.36,33.19l.56.29a3,3,0,0,1-.64.87,2.46,2.46,0,0,1-.8.5,2.89,2.89,0,0,1-1,.17,2.46,2.46,0,0,1-2-.82,2.83,2.83,0,0,1-.11-3.59,2.44,2.44,0,0,1,2-1,2.53,2.53,0,0,1,2.09,1,2.8,2.8,0,0,1,.57,1.75H44.48a2.11,2.11,0,0,0,.57,1.46,1.82,1.82,0,0,0,1.36.57,2.43,2.43,0,0,0,.76-.13,1.78,1.78,0,0,0,.63-.37A2.94,2.94,0,0,0,48.36,33.19Zm0-1.38A2.19,2.19,0,0,0,48,31a1.72,1.72,0,0,0-.66-.51,2,2,0,0,0-.87-.19,1.88,1.88,0,0,0-1.3.49,2.12,2.12,0,0,0-.59,1Z"/><path d="M52.88,30.33l-.42.44a1.51,1.51,0,0,0-1-.51.77.77,0,0,0-.55.21.65.65,0,0,0-.23.49.69.69,0,0,0,.19.47,2.52,2.52,0,0,0,.79.55,2.79,2.79,0,0,1,1,.73,1.35,1.35,0,0,1,.26.81,1.46,1.46,0,0,1-.44,1.06,1.54,1.54,0,0,1-1.11.44,1.88,1.88,0,0,1-.84-.19,1.71,1.71,0,0,1-.67-.54l.41-.47a1.44,1.44,0,0,0,1.07.57,1,1,0,0,0,.68-.25.8.8,0,0,0,.27-.6.72.72,0,0,0-.18-.5,2.8,2.8,0,0,0-.83-.55,2.53,2.53,0,0,1-.94-.7,1.31,1.31,0,0,1-.25-.8,1.3,1.3,0,0,1,.4-1,1.4,1.4,0,0,1,1-.38A2.09,2.09,0,0,1,52.88,30.33Z"/><path d="M56.62,30.33l-.42.44a1.53,1.53,0,0,0-1-.51.77.77,0,0,0-.55.21.62.62,0,0,0-.23.49.73.73,0,0,0,.18.47,2.73,2.73,0,0,0,.8.55,2.89,2.89,0,0,1,1,.73,1.35,1.35,0,0,1,.26.81,1.46,1.46,0,0,1-.44,1.06,1.54,1.54,0,0,1-1.11.44,1.92,1.92,0,0,1-.85-.19,1.75,1.75,0,0,1-.66-.54l.41-.47a1.42,1.42,0,0,0,1.07.57,1,1,0,0,0,.68-.25.8.8,0,0,0,.27-.6.77.77,0,0,0-.18-.5,2.8,2.8,0,0,0-.83-.55,2.53,2.53,0,0,1-.94-.7,1.31,1.31,0,0,1-.25-.8,1.3,1.3,0,0,1,.4-1,1.38,1.38,0,0,1,1-.38A2.09,2.09,0,0,1,56.62,30.33Z"/><path d="M60.35,27.8H61v7.09h-.66Z"/><path d="M62.3,29.77H63v2.39a5.25,5.25,0,0,0,.1,1.21,1.37,1.37,0,0,0,.54.74,1.64,1.64,0,0,0,1,.27,1.55,1.55,0,0,0,.93-.27,1.32,1.32,0,0,0,.53-.7,4.64,4.64,0,0,0,.1-1.25V29.77h.67v2.51a4.1,4.1,0,0,1-.24,1.6,1.93,1.93,0,0,1-.74.83,2.3,2.3,0,0,1-1.25.31,2.32,2.32,0,0,1-1.25-.31,1.86,1.86,0,0,1-.75-.84,4.29,4.29,0,0,1-.24-1.64Z"/><path d="M67.65,29.77h.79l1.36,1.87,1.35-1.87h.79L70.2,32.19l2,2.7h-.81L69.8,32.74l-1.55,2.15h-.78l1.94-2.7Z"/><path d="M72.77,29.77h.66v2.39a4.73,4.73,0,0,0,.1,1.21,1.37,1.37,0,0,0,.54.74,1.62,1.62,0,0,0,.94.27,1.6,1.6,0,0,0,.94-.27,1.3,1.3,0,0,0,.52-.7,4.12,4.12,0,0,0,.11-1.25V29.77h.67v2.51a3.9,3.9,0,0,1-.25,1.6,1.81,1.81,0,0,1-.74.83A2.26,2.26,0,0,1,75,35a2.3,2.3,0,0,1-1.25-.31,1.75,1.75,0,0,1-.75-.84,4.08,4.08,0,0,1-.25-1.64Z"/><path d="M78.46,29.77h.68v.75a2.11,2.11,0,0,1,.63-.66,1.28,1.28,0,0,1,.69-.22,1.2,1.2,0,0,1,.58.17l-.34.56a.9.9,0,0,0-.34-.09,1,1,0,0,0-.64.27,1.68,1.68,0,0,0-.46.84,8.19,8.19,0,0,0-.12,1.77v1.73h-.68Z"/><path d="M81.06,29.77h.69l1.77,3.94,1.7-3.94h.7l-3,7h-.7l1-2.26Z"/></svg>