<svg id="レイヤー_1" data-name="レイヤー 1" xmlns="http://www.w3.org/2000/svg" viewBox="0 0 137.94 50.07"><defs><style>.cls-1{fill:#eb1c24;}</style></defs><path d="M20.66,3.56l5.23-.11.25.25L26,7.08v4.16l.11,3.87-.25.28-5.23-.14H8.06v1.12H25.33l5.2-.11.25.25v3l-.25.24-5.2-.1H8.06v1.18H24.78l5.2-.07.24.28c0,3.14-.1,5.66-.28,7.44-.24,2.33-.56,3.1-1.29,3.87-.94,1-2.58,1.08-5,1.08A.66.66,0,0,1,23,33l-1.5-3.81.07,3.25H16.65V31.13H4.75v1.36H0L.1,28.3V25.44l.32-.35H4.33l.42.31v2H8.31v-3.1l-4.82.07-.24-.28.1-5.58V8.06L3.25,3.7l.24-.25,5.23.11h2A31,31,0,0,0,11.66.14L12,0l4.88.91.11.42c-.38.87-.7,1.57-1,2.23Zm.45,4.36V6.77h-13V7.92Zm-13,4.22H21.11V11h-13Zm13.4,17a19.31,19.31,0,0,0,2.16,0A1.28,1.28,0,0,0,24.88,28a19,19,0,0,0,.32-3.7H13.05v3.1h3.6V25.3l.24-.28h4.26l.28.24v2.9Z"/><path d="M55.28,4.05,60.76,6l.1.35c-3.84,11-9.39,18-18.29,23.76a1.67,1.67,0,0,1-.76.31,1.12,1.12,0,0,1-.63-.31L36.64,27C46.55,21.46,52,14.66,54.93,4.15Z"/><path d="M69.1,11.31l-.25-.21V7.29l.21-.21,3.74.11V.52l.28-.28h4l.32.25V7.15l3-.07.21.18v3.87l-.21.18-3-.07v4.11c1.22-.38,2.37-.8,3.45-1.22v3.49c0,.63-.14.81-.73,1.08-.77.35-1.68.74-2.72,1.12v1l.17,7.78c0,4-1.53,5.1-6,5.1-.41,0-.52-.07-.66-.42l-2-4.36a25,25,0,0,0,2.82-.14c.74-.07,1-.28,1-1.12V21.46c-.88.32-1.78.59-2.69.87l-.31-.17-1.4-4.08.17-.32c1.4-.31,2.83-.63,4.23-1V11.2ZM99.88,15a.59.59,0,0,1,.24.52,2.38,2.38,0,0,1-.1.6A26.24,26.24,0,0,1,95,26a24.71,24.71,0,0,0,7.5,2.61l-2.37,4.09c-.14.21-.24.31-.45.31a2.15,2.15,0,0,1-.46-.07,23.9,23.9,0,0,1-8-3.63,31.71,31.71,0,0,1-9.66,4.05c-.46.11-.56,0-.77-.31l-2.55-3.63A30.17,30.17,0,0,0,87.8,26a18.85,18.85,0,0,1-1.53-2.24c-.56.63-1.16,1.23-1.82,1.85l-.31,0L81.38,23l0-.35a22.85,22.85,0,0,0,4.5-5.16l-3.46.07-.24-.25v-3.9l.24-.25,4.57.07h1.57V9.74H86.62l-5.2.1-.25-.24v-4l.25-.25,5.2.11h1.91V.49l.25-.25h4.5l.24.25V5.41h2.73l5.27-.11.17.25V9.63l-.24.21-5.2-.1H93.52v3.52H95l2.82-.17ZM89.72,19c-.21.31-.38.63-.59.94a15.87,15.87,0,0,0,2.16,3.11,15.82,15.82,0,0,0,3-5.55H87.24l2.41,1.15Z"/><path d="M118.33,6.7V8l-.21.17-3.63-.1-.07,11.48c1.53-.42,2.93-.84,4.19-1.22l.07,3.55c0,.63-.14.88-.74,1.09-3,1.11-7.74,2.58-11.16,3.52l-.32-.17L105,22.16l.14-.31c1.4-.28,2.9-.63,4.4-1V8.1l-3.77.1L105.56,8V4.19l.21-.21,4.25.1h3.84l4.22-.1V2.34l.21-.21,4.61.1h10.22l4.61-.1.21.17V6.53l-.21.17-4.61-.1h-5.79c-.28,2.09-.63,4.15-1.08,6.21h6.49l3.52-.07.21.21c-.38,13.54-1,16.33-2.61,18.21a6.47,6.47,0,0,1-5.17,2H125.9a.61.61,0,0,1-.7-.46l-1.71-4.6c1.61,0,2.76,0,4.09,0,1.64,0,2.23-.42,2.58-1.29s.63-2.83,1-9.74h-5.86c-.35,1.51-.77,3-1.18,4.4l-5.34-.77a87.13,87.13,0,0,0,3.42-14Z"/><path d="M2.2,47c.13.87.52,1.34,1.34,1.34a.71.71,0,0,0,.8-.73c0-.55-.33-.77-1.54-1.19C1.4,45.93.68,45.25.68,44.08a2.29,2.29,0,0,1,2.58-2.32A2.5,2.5,0,0,1,6,44l-1.75.36C4.2,43.46,3.83,43,3.18,43a.73.73,0,0,0-.78.79c0,.52.37.8,1.47,1.15,1.64.52,2.32,1.13,2.32,2.39,0,1.43-1,2.35-2.76,2.35s-2.84-.82-3-2.42Z"/><path d="M18.3,41.86v7.68H16.48v-3.2H13.92v3.2H12.1V41.86h1.82v3h2.56v-3Z"/><path d="M26.43,49.54H24.61V41.86h1.82Z"/><path d="M40.37,41.86v7.68H38.75v-3c0-1.06,0-2.1.11-3.15h-.1l-1.47,6.15H35.85l-1.5-6.15h-.1c.08,1,.1,2.07.1,3.15v3H32.72V41.86h2.7l.74,3a16.53,16.53,0,0,1,.41,2.62h.1a16.94,16.94,0,0,1,.38-2.61l.71-3Z"/><path d="M52.84,49.54H51l-.44-1.8H48.23l-.44,1.8H46.11l2-7.68h2.81Zm-3.19-5.61c-.08-.35-.16-.7-.21-1h0c-.06.35-.14.7-.23,1l-.6,2.43h1.69Z"/><path d="M64.7,41.86v7.68H62.14L60.51,45a12.19,12.19,0,0,1-.44-1.57H60c.13,1.26.19,3,.19,4.1v2h-1.6V41.86h2.56l1.63,4.58A12.27,12.27,0,0,1,63.22,48h.09a38.83,38.83,0,0,1-.2-3.89V41.86Z"/><path d="M77.23,45.7c0,2.76-1.35,3.94-3.27,3.94s-3.27-1.18-3.27-3.94S72,41.76,74,41.76,77.23,42.94,77.23,45.7Zm-1.92,0c0-2-.49-2.66-1.35-2.66s-1.35.71-1.35,2.66.48,2.66,1.35,2.66S75.31,47.65,75.31,45.7Z"/><path d="M89.24,45.34c0,.29,0,.54,0,.83,0,2.21-1.07,3.48-3,3.48-2.18,0-3.31-1.34-3.31-3.95,0-2.43,1.24-3.94,3.22-3.94a2.74,2.74,0,0,1,2.93,2.43l-1.83.42C87.14,43.53,86.78,43,86.1,43c-.85,0-1.32.92-1.32,2.59,0,1.86.51,2.79,1.52,2.79.78,0,1.16-.6,1.17-1.85h-1.4V45.34Z"/><path d="M97.09,49.54H95.27V41.86h1.82Z"/><path d="M105.17,43.93c0,.43,0,.82-.06,1.25h0a11.7,11.7,0,0,1,.82-1.25l1.64-2.07h2.21l-2.88,3.19,2.89,4.49h-2.19l-1.89-3.19-.58.63v2.56h-1.79V41.86h1.79Z"/><path d="M121.25,45.7c0,2.76-1.35,3.94-3.27,3.94s-3.27-1.18-3.27-3.94,1.35-3.94,3.27-3.94S121.25,42.94,121.25,45.7Zm-1.92,0c0-2-.48-2.66-1.35-2.66s-1.35.71-1.35,2.66.49,2.66,1.35,2.66S119.33,47.65,119.33,45.7Z"/><path class="cls-1" d="M132.76,48.82l.87.4a1.65,1.65,0,0,0,.71.17.39.39,0,0,0,.34-.16,1.16,1.16,0,0,0,.22-.4,4.68,4.68,0,0,0,.18-.48l.16-.52a4.44,4.44,0,0,0,.13-.48,1.72,1.72,0,0,0,0-.39.48.48,0,0,0-.24-.46,1.08,1.08,0,0,0-.56-.14,4.93,4.93,0,0,0-1.2.15,6.82,6.82,0,0,0-1.21.44s0,.08,0,.11a.31.31,0,0,1,0,.11,1,1,0,0,1-.07.32,1.58,1.58,0,0,0-.09.26c.23-.07.48-.15.74-.25s.4-.17.41-.23a.38.38,0,0,0,0-.2.63.63,0,0,0-.13-.2l0-.08a2.29,2.29,0,0,1,.73.18c.19.09.29.2.29.34a.63.63,0,0,1-.18.41,3,3,0,0,1-.41.38l-.38.26-.38.23-.46.24a4.09,4.09,0,0,1-.49.18c.21-.18.39-.35.55-.51a4,4,0,0,0,.42-.52,9.68,9.68,0,0,0-1.93.76,9.08,9.08,0,0,1-1.15.55.48.48,0,0,1-.38-.21.64.64,0,0,1-.16-.39.83.83,0,0,1,.23-.39l.33-.39a1.21,1.21,0,0,0,.2-.36,4.7,4.7,0,0,0,.17-.45h.05a2.1,2.1,0,0,1,.22.33,1,1,0,0,1,.08.38,1,1,0,0,1,0,.21.94.94,0,0,0,0,.16,4.77,4.77,0,0,0,.47-.13l.47-.19c0-.13,0-.23.06-.31a1.94,1.94,0,0,0,0-.24,1.38,1.38,0,0,0,0-.22.83.83,0,0,1,0-.22l-.14.22c-.05.08-.08.11-.11.11s-.22-.14-.36-.42a1.61,1.61,0,0,1-.22-.74c0-.1,0-.3,0-.58s0-.47.05-.56l.21-2a3.23,3.23,0,0,1-.51.14,3.07,3.07,0,0,1-.53.07,6,6,0,0,0,1.37-1c.52-.5.78-.8.78-.89a.32.32,0,0,0,0-.14h-2.75a1,1,0,0,0-1,1v7.06a1,1,0,0,0,1,1H134l-.11-.08A6.43,6.43,0,0,1,132.76,48.82Z"/><path class="cls-1" d="M131.77,45.43c.08,0,.27-.07.59-.13l.74-.15a.86.86,0,0,1,0-.13c0-.06,0-.11,0-.14a2,2,0,0,1,0-.32,1.24,1.24,0,0,1,0-.25,1.92,1.92,0,0,1-.58.48A4.58,4.58,0,0,0,131.77,45.43Z"/><path class="cls-1" d="M131.69,45.18c.13-.13.25-.26.35-.38a.5.5,0,0,1-.37-.09.34.34,0,0,1-.19-.3,2.92,2.92,0,0,0,.43-.37,2.61,2.61,0,0,0,.34-.44h-.46a1.27,1.27,0,0,1-.36-.08c-.05.33-.08.66-.1,1s0,.68,0,1C131.44,45.42,131.56,45.3,131.69,45.18Z"/><path class="cls-1" d="M136.23,41h-3.4a.31.31,0,0,1,.18.26.53.53,0,0,1-.2.35,5.46,5.46,0,0,1-.55.42l-.56.38-.45.27a1.11,1.11,0,0,1,.12.31c0,.13,0,.29.08.49l.64-.3a2.25,2.25,0,0,1,.71-.23.67.67,0,0,1,.24,0,.15.15,0,0,1,.11.15.33.33,0,0,1-.11.24l-.24.24a3,3,0,0,0-.31.31l-.28.3.22-.06a1.24,1.24,0,0,1,.3,0l.21,0a.66.66,0,0,1,.19.09,6,6,0,0,1,.07-.72c0-.35.07-.61.07-.79a1.34,1.34,0,0,0,0-.26.09.09,0,0,0-.1-.06,1.26,1.26,0,0,0-.37.09,1.35,1.35,0,0,1-.39.09.8.8,0,0,1-.27,0l-.3-.09v0a4.93,4.93,0,0,1,.88-.31,3.16,3.16,0,0,1,.81-.11,1.45,1.45,0,0,1,.49.07.26.26,0,0,1,.21.28s-.06.39-.17,1.07a10.84,10.84,0,0,0-.17,1.57l.55-.09a4.3,4.3,0,0,1,.71-.07,2.05,2.05,0,0,1,.64.11c.22.06.33.16.33.29a.16.16,0,0,1-.08.13.38.38,0,0,1-.17.08l-.21,0-.32,0-.4,0-.39.05-.41.1-.48.16.34-.21.31-.19-.65.11a14.08,14.08,0,0,1-1.73.45h-.32l-.26,0a.78.78,0,0,0,0,.22,1,1,0,0,0,0,.24,15.76,15.76,0,0,1,1.81-.37,10.65,10.65,0,0,1,1.68-.13,2.24,2.24,0,0,1,.52.06,1.73,1.73,0,0,1,.51.18,1.13,1.13,0,0,1,.43.35.75.75,0,0,1,.18.5,2.06,2.06,0,0,1-.09.59,5.84,5.84,0,0,1-.2.64c-.08.22-.16.43-.24.62l-.29.7a2.94,2.94,0,0,1-.23.47h.83a1,1,0,0,0,1-1V42A1,1,0,0,0,136.23,41Z"/></svg>