<svg id="レイヤー_1" data-name="レイヤー 1" xmlns="http://www.w3.org/2000/svg" viewBox="0 0 110.53 36.96"><path d="M9.61,21.59a12.85,12.85,0,0,0-2.34-1.05c-.85-.29-1.63-.59-2.34-.88a9.28,9.28,0,0,1-1.79-1,1.62,1.62,0,0,1-.73-1.37,1.63,1.63,0,0,1,.79-1.57A3.57,3.57,0,0,1,5,15.3a4.69,4.69,0,0,1,1.71.33,8.34,8.34,0,0,1,1.53.87,8,8,0,0,1,1.31,1.22,7.46,7.46,0,0,1,1,1.45h.54L10.81,15a12.56,12.56,0,0,1-2.89-.48A10.41,10.41,0,0,0,5,14.1a4.91,4.91,0,0,0-3.33,1.14A4.11,4.11,0,0,0,.37,18.51a3.13,3.13,0,0,0,.73,2.13A6.44,6.44,0,0,0,2.89,22a13.81,13.81,0,0,0,2.34,1,24,24,0,0,1,2.34.89A7.18,7.18,0,0,1,9.36,25a2,2,0,0,1,.73,1.62,1.62,1.62,0,0,1-.28,1,2,2,0,0,1-.71.63,3.32,3.32,0,0,1-1,.34,5.41,5.41,0,0,1-1.05.1,5.26,5.26,0,0,1-2-.4,8.22,8.22,0,0,1-1.77-1,10.17,10.17,0,0,1-1.52-1.41A18.46,18.46,0,0,1,.55,24.22H0l.31,4.57a17.07,17.07,0,0,1,2.62.6,11.94,11.94,0,0,0,3.45.48,11.41,11.41,0,0,0,2.23-.21,5.32,5.32,0,0,0,1.83-.73,3.51,3.51,0,0,0,1.24-1.42,5,5,0,0,0,.45-2.25,3.36,3.36,0,0,0-.73-2.18A6.22,6.22,0,0,0,9.61,21.59Z"/><path d="M18,8.63A2,2,0,0,0,19.44,8a2.15,2.15,0,0,0,0-3,2,2,0,0,0-3,0,2.15,2.15,0,0,0,0,3A1.94,1.94,0,0,0,18,8.63Z"/><path d="M86.82,9a2,2,0,0,0,1.49-.65,2.17,2.17,0,0,0,0-3,2,2,0,0,0-3,0,2.15,2.15,0,0,0,0,3A2,2,0,0,0,86.82,9Z"/><path d="M66.94,9a2,2,0,0,0,1.48-.65,2.15,2.15,0,0,0,0-3,2,2,0,0,0-1.48-.65,2,2,0,0,0-1.49.65,2.17,2.17,0,0,0,0,3A2,2,0,0,0,66.94,9Z"/><path d="M40.61,18.76a6.77,6.77,0,0,0-1.73-2.49,8.12,8.12,0,0,0-2.67-1.6,10.7,10.7,0,0,0-6.89,0,8.27,8.27,0,0,0-2.68,1.6,6.86,6.86,0,0,0-1.72,2.49A8.16,8.16,0,0,0,24.31,22a8.31,8.31,0,0,0,.61,3.24,6.91,6.91,0,0,0,1.72,2.48,8.08,8.08,0,0,0,2.68,1.59,10.7,10.7,0,0,0,6.89,0,7.93,7.93,0,0,0,2.67-1.59,6.81,6.81,0,0,0,1.73-2.48A8.31,8.31,0,0,0,41.22,22,8.16,8.16,0,0,0,40.61,18.76Zm-3.13,5.92a6.63,6.63,0,0,1-.78,2,4.49,4.49,0,0,1-1.33,1.44,3.34,3.34,0,0,1-1.9.55A4.83,4.83,0,0,1,30.94,28a5.56,5.56,0,0,1-1.78-1.7A7.59,7.59,0,0,1,28.11,24a10.52,10.52,0,0,1-.32-2.5A9.89,9.89,0,0,1,28,19.27a6.82,6.82,0,0,1,.78-2,4.52,4.52,0,0,1,1.34-1.44,3.25,3.25,0,0,1,1.9-.55,4.76,4.76,0,0,1,2.51.65,5.79,5.79,0,0,1,1.76,1.69,8,8,0,0,1,1.06,2.3,9.53,9.53,0,0,1,.36,2.52A9.36,9.36,0,0,1,37.48,24.68Z"/><path d="M20,27.46a6,6,0,0,1-.16-1.54V13.73l-4.36,2a2.17,2.17,0,0,1,.88.81,2.74,2.74,0,0,1,.36,1.22q.06.72.06,1.68v6.48a6,6,0,0,1-.16,1.54,1.8,1.8,0,0,1-.51.9,1.7,1.7,0,0,1-.91.41v.49c.58,0,1.61-.05,2.21-.05.91,0,3.15,0,4.07.05v-.49a1.83,1.83,0,0,1-1-.41A1.68,1.68,0,0,1,20,27.46Z"/><path d="M110.52,28.53a5.09,5.09,0,0,1-.57-.26,1.84,1.84,0,0,1-.71-1.72V19.61a6.35,6.35,0,0,0-.47-2.63,4.43,4.43,0,0,0-1.26-1.7,5.08,5.08,0,0,0-1.8-.9,7.68,7.68,0,0,0-2.11-.28,5.6,5.6,0,0,0-2.65.75,18,18,0,0,0-2.44,1.58V13.92L94.64,15.7c.54.18.81.91.81,1.7v9.15a1.82,1.82,0,0,1-.71,1.72,5.2,5.2,0,0,1-1.16.45l0,.54c.57,0,2-.05,2.65-.05.88,0,1.77,0,2.64.05l1.14,0v-.72a4.11,4.11,0,0,1-.72-.3,1.79,1.79,0,0,1-.75-1.72V18.22a1.1,1.1,0,0,1,.39-.75,4.86,4.86,0,0,1,1-.72,5.07,5.07,0,0,1,1.31-.53,5.3,5.3,0,0,1,1.39-.2,3.22,3.22,0,0,1,2.72,1.1,4.85,4.85,0,0,1,.88,3.1v6.34a1.87,1.87,0,0,1-.69,1.72,5,5,0,0,1-1,.4v.6l.63,0c.56,0,1.14-.05,1.74-.05.89,0,1.77,0,2.63.05l1,0Z"/><path d="M89.43,28.36a1.75,1.75,0,0,1-.53-.9,6,6,0,0,1-.15-1.54V13.73l-4.37,2a2.14,2.14,0,0,1,.89.81,2.74,2.74,0,0,1,.36,1.22q.06.72.06,1.68v6.48a5.91,5.91,0,0,1-.17,1.54,1.73,1.73,0,0,1-.51.9,1.67,1.67,0,0,1-.91.41v.49c.58,0,1.6-.05,2.21-.05.9,0,3.16,0,4.09.05v-.49A1.83,1.83,0,0,1,89.43,28.36Z"/><path d="M77,1.16a2,2,0,0,0-1.49.65,2.15,2.15,0,0,0,0,3A2,2,0,0,0,77,5.48a1.94,1.94,0,0,0,1.48-.65,2.12,2.12,0,0,0,.61-1.51,2.12,2.12,0,0,0-.61-1.51A2,2,0,0,0,77,1.16Z"/><path d="M60.52,18.5a6.57,6.57,0,0,0-1.69-2.33,8.16,8.16,0,0,0-2.56-1.52,9.07,9.07,0,0,0-3.22-.55,8.22,8.22,0,0,0-2.82.47,9.64,9.64,0,0,0-2.35,1.26c0-2.47.08-6.06.1-8.48s0-4.87.08-7.35L44.2,1.77a2.14,2.14,0,0,1,.74,1.89V27.39a4.71,4.71,0,0,0,1,.65,13.35,13.35,0,0,0,1.79.83,17.29,17.29,0,0,0,2.33.71,11,11,0,0,0,2.56.29,10.31,10.31,0,0,0,3.35-.53,7.28,7.28,0,0,0,4.52-4.23,9.18,9.18,0,0,0,.68-3.63A7.13,7.13,0,0,0,60.52,18.5ZM57.3,24.67a6.6,6.6,0,0,1-1,2.1,4.9,4.9,0,0,1-1.58,1.4,4.21,4.21,0,0,1-2.07.51,7.34,7.34,0,0,1-2.19-.38,3.35,3.35,0,0,1-1.53-1.1,5.17,5.17,0,0,1-.93-2A14.77,14.77,0,0,1,47.64,22,15.16,15.16,0,0,1,48,18.78a5.15,5.15,0,0,1,.93-2,3.26,3.26,0,0,1,1.53-1.09,7.73,7.73,0,0,1,2.19-.35,4.21,4.21,0,0,1,2.07.51,4.9,4.9,0,0,1,1.58,1.4,6.6,6.6,0,0,1,1,2.1A9.14,9.14,0,0,1,57.66,22,9.14,9.14,0,0,1,57.3,24.67Z"/><path d="M69,27.46a6.5,6.5,0,0,1-.15-1.54V13.73l-4.36,2a2.17,2.17,0,0,1,.88.81,2.87,2.87,0,0,1,.36,1.22c0,.48.05,1,.05,1.68v6.48a6,6,0,0,1-.15,1.54,1.87,1.87,0,0,1-.51.9,1.7,1.7,0,0,1-.91.41v.49c.58,0,1.61-.05,2.22-.05.91,0,3.14,0,4.07.05v-.49A1.7,1.7,0,0,1,69,27.46Z"/><path d="M75.83,17.55v9.23c0,5.33-1.19,8.06-3.51,9.64l.48.54a10.25,10.25,0,0,0,6.09-9.08V12.82L75.2,14.5A6.13,6.13,0,0,1,75.83,17.55Z"/></svg>